<?xml version="1.0" encoding="utf-8"?>
<!-- Generator: Adobe Illustrator 23.0.3, SVG Export Plug-In . SVG Version: 6.00 Build 0)  -->
<svg version="1.1" id="Layer_1" xmlns="http://www.w3.org/2000/svg" xmlns:xlink="http://www.w3.org/1999/xlink" x="0px" y="0px"
	 viewBox="0 0 500 400" style="enable-background:new 0 0 500 400;" xml:space="preserve">
<style type="text/css">
	.st0{fill:#FFA792;}
	.st1{fill:#F78C77;}
	.st2{fill:#B4E1FA;}
	.st3{fill:#DAF0FD;}
	.st4{fill:#AA0F1B;}
	.st5{fill:#C7CFE2;}
	.st6{fill:#E32228;}
	.st7{fill:#EFF2FA;}
	.st8{opacity:0.97;}
	.st9{fill:#AFB9D2;}
	.st10{fill:#5B5D6E;}
	.st11{fill:#A0D2F0;}
	.st12{fill:#EDEDEE;}
	.st13{fill:#504B5A;}
	.st14{fill:#DCDBDE;}
	.st15{fill:#625D6B;}
</style>
<g>
	<g>
		<path class="st0" d="M411.9,298.2H179.1V95.8c0-2.4,1.9-4.3,4.3-4.3h224.1c2.4,0,4.3,1.9,4.3,4.3v202.5H411.9z"/>
		<path class="st1" d="M411.9,159.9c-0.9,0.2-1.8,0.4-2.7,0.4c-6.3,0-11.4-5.1-11.4-11.4c0,6.3-5.1,11.4-11.4,11.4
			s-11.4-5.1-11.4-11.4c0,6.3-5.1,11.4-11.4,11.4s-11.4-5.1-11.4-11.4c0,6.3-5.1,11.4-11.4,11.4s-11.4-5.1-11.4-11.4
			c0,6.3-5.1,11.4-11.4,11.4s-11.4-5.1-11.4-11.4c0,6.3-5.1,11.4-11.4,11.4s-11.4-5.1-11.4-11.4c0,6.3-5.1,11.4-11.4,11.4
			s-11.4-5.1-11.4-11.4c0,6.3-5.1,11.4-11.4,11.4c-6.3,0-11.4-5.1-11.4-11.4c0,6.3-5.1,11.4-11.4,11.4c-6.3,0-11.4-5.1-11.4-11.4
			c0,6.3-5.1,11.4-11.4,11.4c-6.3,0-11.4-5.1-11.4-11.4c0,6.3-5.1,11.4-11.4,11.4c-1,0-1.9-0.2-2.7-0.4v8.7c0.9,0.1,1.8,0.3,2.7,0.3
			c4.2,0,8.1-1.3,11.4-3.6c3.2,2.2,7.1,3.6,11.4,3.6c4.2,0,8.1-1.3,11.4-3.6c3.2,2.2,7.1,3.6,11.4,3.6s8.1-1.3,11.4-3.6
			c3.2,2.2,7.1,3.6,11.4,3.6c4.2,0,8.1-1.3,11.4-3.6c3.2,2.2,7.1,3.6,11.4,3.6s8.1-1.3,11.4-3.6c3.2,2.2,7.1,3.6,11.4,3.6
			s8.1-1.3,11.4-3.6c3.2,2.2,7.1,3.6,11.4,3.6s8.1-1.3,11.4-3.6c3.2,2.2,7.1,3.6,11.4,3.6s8.1-1.3,11.4-3.6
			c3.2,2.2,7.1,3.6,11.4,3.6s8.1-1.3,11.4-3.6c3.2,2.2,7.1,3.6,11.4,3.6c4.2,0,8.1-1.3,11.4-3.6c3.2,2.2,7.1,3.6,11.4,3.6
			c0.9,0,1.8-0.2,2.7-0.3L411.9,159.9L411.9,159.9L411.9,159.9z"/>
		<rect x="200.7" y="177.6" class="st2" width="120.7" height="77.6"/>
		<polygon class="st3" points="299.8,250.8 291.2,250.8 239.5,181.9 248.1,181.9 		"/>
		<g>
			<path class="st4" d="M272.8,160.3L272.8,160.3c-6.3,0-11.4-5.1-11.4-11.4v-10.2h22.7v10.2C284.1,155.2,279,160.3,272.8,160.3z"/>
			<path class="st4" d="M318.2,160.3L318.2,160.3c-6.3,0-11.4-5.1-11.4-11.4v-10.2h22.7v10.2C329.6,155.2,324.5,160.3,318.2,160.3z"
				/>
			<path class="st4" d="M227.3,160.3L227.3,160.3c-6.3,0-11.4-5.1-11.4-11.4v-10.2h22.7v10.2C238.7,155.2,233.6,160.3,227.3,160.3z"
				/>
			<path class="st4" d="M181.9,160.3L181.9,160.3c-6.3,0-11.4-5.1-11.4-11.4v-10.2h22.7v10.2C193.2,155.2,188.1,160.3,181.9,160.3z"
				/>
			<path class="st4" d="M363.7,160.3L363.7,160.3c-6.3,0-11.4-5.1-11.4-11.4v-10.2H375v10.2C375,155.2,370,160.3,363.7,160.3z"/>
		</g>
		<g>
			<path class="st5" d="M250,160.3L250,160.3c-6.3,0-11.4-5.1-11.4-11.4v-10.2h22.7v10.2C261.4,155.2,256.3,160.3,250,160.3z"/>
			<path class="st5" d="M341,160.3L341,160.3c-6.3,0-11.4-5.1-11.4-11.4v-10.2h22.7v10.2C352.3,155.2,347.2,160.3,341,160.3z"/>
		</g>
		<path class="st4" d="M409.1,160.3L409.1,160.3c-6.3,0-11.4-5.1-11.4-11.4v-10.2h22.7v10.2C420.5,155.2,415.4,160.3,409.1,160.3z"
			/>
		<g>
			<path class="st5" d="M386.4,160.3L386.4,160.3c-6.3,0-11.4-5.1-11.4-11.4v-10.2h22.7v10.2C397.8,155.2,392.7,160.3,386.4,160.3z"
				/>
			<path class="st5" d="M204.6,160.3L204.6,160.3c-6.3,0-11.4-5.1-11.4-11.4v-10.2H216v10.2C216,155.2,210.9,160.3,204.6,160.3z"/>
			<path class="st5" d="M295.5,160.3L295.5,160.3c-6.3,0-11.4-5.1-11.4-11.4v-10.2h22.7v10.2C306.9,155.2,301.8,160.3,295.5,160.3z"
				/>
		</g>
		<g>
			<polygon class="st6" points="284.1,138.8 261.4,138.8 263.8,104.3 284.9,104.3 			"/>
			<polygon class="st6" points="329.6,138.8 306.9,138.8 306.1,104.3 327.2,104.3 			"/>
			<polygon class="st6" points="238.7,138.8 216,138.8 221.4,104.3 242.6,104.3 			"/>
			<polygon class="st6" points="193.2,138.8 170.5,138.8 179.1,104.3 200.3,104.3 			"/>
			<polygon class="st6" points="375,138.8 352.3,138.8 348.4,104.3 369.6,104.3 			"/>
		</g>
		<g>
			<polygon class="st7" points="261.4,138.8 238.7,138.8 242.6,104.3 263.8,104.3 			"/>
			<polygon class="st7" points="352.3,138.8 329.6,138.8 327.2,104.3 348.4,104.3 			"/>
		</g>
		<polygon class="st6" points="420.5,138.8 397.8,138.8 390.7,104.3 411.9,104.3 		"/>
		<g>
			<polygon class="st7" points="397.8,138.8 375,138.8 369.6,104.3 390.7,104.3 			"/>
			<polygon class="st7" points="216,138.8 193.2,138.8 200.3,104.3 221.4,104.3 			"/>
			<polygon class="st7" points="306.9,138.8 284.1,138.8 284.9,104.3 306.1,104.3 			"/>
		</g>
		<path class="st5" d="M416.2,302.5H174.8c-2.4,0-4.3-1.9-4.3-4.3l0,0c0-2.4,1.9-4.3,4.3-4.3h241.4c2.4,0,4.3,1.9,4.3,4.3l0,0
			C420.5,300.7,418.6,302.5,416.2,302.5z"/>
		<g class="st8">
			<rect x="179.1" y="285.3" class="st9" width="232.8" height="8.6"/>
		</g>
		<rect x="179.1" y="268.2" class="st1" width="232.8" height="17.2"/>
		<g>
			<path class="st10" d="M317.1,181.9v69H205v-69H317.1 M321.4,173.2H200.7c-2.4,0-4.3,1.9-4.3,4.3v77.6c0,2.4,1.9,4.3,4.3,4.3
				h120.7c2.4,0,4.3-1.9,4.3-4.3v-77.6C325.7,175.2,323.7,173.2,321.4,173.2L321.4,173.2z"/>
			<path class="st10" d="M390.3,173.2h-43.1c-2.4,0-4.3,1.9-4.3,4.3v107.8h51.7V177.6C394.6,175.2,392.7,173.2,390.3,173.2z"/>
		</g>
		<rect x="351.5" y="181.9" class="st2" width="34.5" height="69"/>
		<rect x="205" y="181.9" class="st11" width="112.1" height="8.6"/>
		<rect id="SVGCleanerId_0" x="351.5" y="181.9" class="st11" width="34.5" height="8.6"/>
		<polygon class="st11" points="282.6,250.8 265.3,250.8 213.6,181.9 230.8,181.9 		"/>
		<polygon class="st2" points="254.6,190.6 248.1,181.9 239.5,181.9 245.9,190.6 		"/>
		<polygon class="st3" points="386,216.3 360.2,181.9 351.5,181.9 386,227.8 		"/>
		<polygon class="st2" points="366.6,190.6 360.2,181.9 351.5,181.9 358,190.6 		"/>
		<g>
			<rect id="SVGCleanerId_0_1_" x="351.5" y="181.9" class="st11" width="34.5" height="8.6"/>
		</g>
		<polygon class="st3" points="386,216.3 360.2,181.9 351.5,181.9 386,227.8 		"/>
		<polygon class="st11" points="351.5,193.4 351.5,216.3 377.4,250.8 386,250.8 386,239.3 		"/>
	</g>
	<g>
		<path class="st6" d="M281,260c-6.8-4.2-28.9-9.6-59.9-9.6l-16.4-19.1c-3.4-4-8.5-6.3-13.8-6.3h-49c-5.2,0-10.2,1.9-14.2,5.2
			l-19.3,16.5l-20.4,3c-2.9,0.4-5.3,2.6-6,5.4l-2.4,9.8l54.5,25.4h152.5v-20.5C286.5,265.8,284.4,262.2,281,260z"/>
		<path class="st6" d="M286.5,272.2c0-7.3-10.9-14.5-61.7-14.5H83.1c-2,0-3.6,1.6-3.6,3.6V283l69,10.9h138V272.2L286.5,272.2z"/>
		<path class="st4" d="M286.5,286.8H116.2l-32.3-7.2c-1.9-0.4-3.9,0.8-4.3,2.8s0.8,3.9,2.8,4.3l32.7,7.3c0.3,0.1,0.5,0.1,0.8,0.1
			h170.7c2,0,3.6-1.6,3.6-3.6C290.1,288.3,288.5,286.8,286.5,286.8z"/>
		<circle class="st12" cx="253.8" cy="286.8" r="18.2"/>
		<path class="st13" d="M253.8,308.5c-12,0-21.8-9.8-21.8-21.8s9.8-21.8,21.8-21.8c12,0,21.8,9.8,21.8,21.8S265.8,308.5,253.8,308.5
			z M253.8,272.2c-8,0-14.5,6.5-14.5,14.5s6.5,14.5,14.5,14.5c8,0,14.5-6.5,14.5-14.5C268.3,278.8,261.8,272.2,253.8,272.2z"/>
		<circle class="st14" cx="253.8" cy="286.8" r="7.3"/>
		<circle class="st12" cx="115.8" cy="286.8" r="18.2"/>
		<path class="st13" d="M115.8,308.5c-12,0-21.8-9.8-21.8-21.8s9.8-21.8,21.8-21.8s21.8,9.8,21.8,21.8S127.8,308.5,115.8,308.5z
			 M115.8,272.2c-8,0-14.5,6.5-14.5,14.5s6.5,14.5,14.5,14.5s14.5-6.5,14.5-14.5C130.3,278.8,123.8,272.2,115.8,272.2z"/>
		<circle class="st14" cx="115.8" cy="286.8" r="7.3"/>
		<g>
			<path class="st4" d="M224.7,279.5h-76.3c-2,0-3.6-1.6-3.6-3.6l0,0c0-2,1.6-3.6,3.6-3.6h76.3c2,0,3.6,1.6,3.6,3.6l0,0
				C228.4,277.8,226.8,279.5,224.7,279.5z"/>
			<path class="st4" d="M286.5,279.5h-3.6c-2,0-3.6-1.6-3.6-3.6l0,0c0-2,1.6-3.6,3.6-3.6h3.6c2,0,3.6,1.6,3.6,3.6l0,0
				C290.1,277.8,288.5,279.5,286.5,279.5z"/>
		</g>
		<path class="st6" d="M108.6,246.8l19.3-16.5c3.9-3.4,9-5.2,14.2-5.2h49c5.3,0,10.3,2.3,13.8,6.3l16.4,19.1h-86
			c-3.2,0-6.4-0.3-9.6-0.8L108.6,246.8z"/>
		<path class="st15" d="M187,231.2c-1.4-1.7-3.4-2.6-5.6-2.6h-33.5c-1.9,0-3.8,0.8-5.1,2.1l-10.9,10.9c-1,1-1.5,2.3-1.5,3.6l0,0
			c0,2.8,2.3,5.1,5.1,5.1h63.6c1.5,0,2.4-1.8,1.4-3L187,231.2z"/>
		<polygon class="st13" points="155.8,250.4 144.9,250.4 152.1,228.6 159.4,228.6 		"/>
		<path class="st12" d="M282.6,261.3h-3.4c-2,0-3.6,1.6-3.6,3.6s1.6,3.6,3.6,3.6h7.1C286,265.8,284.7,263.2,282.6,261.3z"/>
		<path class="st15" d="M204.8,231.3c-0.9-1-1.8-1.9-2.9-2.7H196c-1.5,0-2.4,1.8-1.4,3l13.5,16.2c1.4,1.7,3.4,2.6,5.6,2.6h7.5
			L204.8,231.3z"/>
		<path class="st4" d="M79.5,261.3v3.6h7.3c2,0,3.6-1.6,3.6-3.6s-1.6-3.6-3.6-3.6h-3.6C81.1,257.7,79.5,259.2,79.5,261.3z"/>
	</g>
</g>
</svg>
